<?xml version="1.0" encoding="utf-8"?>
<!-- Generator: Adobe Illustrator 27.5.0, SVG Export Plug-In . SVG Version: 6.00 Build 0)  -->
<svg version="1.1" id="Capa_2" xmlns="http://www.w3.org/2000/svg" xmlns:xlink="http://www.w3.org/1999/xlink" x="0px" y="0px"
	 viewBox="0 0 2122 2122" style="enable-background:new 0 0 2122 2122;" xml:space="preserve">
<path style="fill:#93412C;" d="M1646.467,448.254c-152.165-145.58-358.563-235.033-585.812-235.033
	c-227.25,0-433.597,89.453-585.713,235.033c-161.296,154.261-261.725,371.583-261.725,612.404
	c0,242.068,101.477,460.388,264.169,614.848c151.915,144.183,357.265,232.589,583.268,232.589
	c226.002,0,431.352-88.406,583.267-232.639c162.742-154.411,264.219-372.73,264.219-614.798
	C1908.141,819.887,1807.711,602.565,1646.467,448.254z M1060.655,1021.693c21.502,0,38.964,17.462,38.964,38.964
	c0,21.503-17.462,38.964-38.964,38.964c-21.503,0-38.964-17.462-38.964-38.964
	C1021.691,1039.155,1039.152,1021.693,1060.655,1021.693z"/>
<path style="fill:#F18EB5;" d="M1060.655,502.884c-308.024,0-557.724,249.751-557.724,557.774s249.7,557.774,557.724,557.774
	c308.073,0,557.773-249.751,557.773-557.774S1368.728,502.884,1060.655,502.884z M1060.655,1021.693
	c21.502,0,38.964,17.462,38.964,38.964c0,21.503-17.462,38.964-38.964,38.964c-21.503,0-38.964-17.462-38.964-38.964
	C1021.691,1039.155,1039.152,1021.693,1060.655,1021.693z"/>
<path style="fill:#FED285;" d="M1060.655,583.556c-263.471,0-477.102,213.63-477.102,477.101
	c0,263.521,213.631,477.101,477.102,477.101c263.52,0,477.1-213.58,477.1-477.101
	C1537.755,797.187,1324.175,583.556,1060.655,583.556z M1060.655,1021.693c21.502,0,38.964,17.462,38.964,38.964
	c0,21.503-17.462,38.964-38.964,38.964c-21.503,0-38.964-17.462-38.964-38.964
	C1021.691,1039.155,1039.152,1021.693,1060.655,1021.693z"/>
<path style="fill:#4EB8B7;" d="M1060.655,661.435c-220.466,0-399.222,178.757-399.222,399.222
	c0,220.515,178.757,399.222,399.222,399.222c220.515,0,399.221-178.707,399.221-399.222
	C1459.876,840.192,1281.17,661.435,1060.655,661.435z M1060.655,1021.693c21.502,0,38.964,17.462,38.964,38.964
	c0,21.503-17.462,38.964-38.964,38.964c-21.503,0-38.964-17.462-38.964-38.964
	C1021.691,1039.155,1039.152,1021.693,1060.655,1021.693z"/>
<path style="fill:#7ACDF4;" d="M1060.655,771.643c-159.6,0-289.015,129.416-289.015,289.015
	c0,159.649,129.415,289.015,289.015,289.015c159.649,0,289.015-129.366,289.015-289.015
	C1349.67,901.058,1220.304,771.643,1060.655,771.643z M1060.655,1099.622c-21.503,0-38.964-17.462-38.964-38.964
	c0-21.503,17.462-38.964,38.964-38.964c21.502,0,38.964,17.462,38.964,38.964C1099.619,1082.16,1082.157,1099.622,1060.655,1099.622
	z"/>
<path style="fill:#FED285;" d="M1060.655,869.129c-105.769,0-191.529,85.761-191.529,191.529
	c0,105.817,85.761,191.529,191.529,191.529c105.817,0,191.578-85.711,191.578-191.529
	C1252.233,954.89,1166.472,869.129,1060.655,869.129z M1060.655,1099.622c-21.503,0-38.964-17.462-38.964-38.964
	c0-21.503,17.462-38.964,38.964-38.964c21.502,0,38.964,17.462,38.964,38.964C1099.619,1082.16,1082.157,1099.622,1060.655,1099.622
	z"/>
<path style="fill:#EB584A;" d="M1060.655,918.47c-78.528,0-142.187,63.66-142.187,142.187s63.659,142.187,142.187,142.187
	c78.526,0,142.187-63.66,142.187-142.187S1139.181,918.47,1060.655,918.47z M1060.655,1099.622
	c-21.503,0-38.964-17.462-38.964-38.964c0-21.503,17.462-38.964,38.964-38.964c21.502,0,38.964,17.462,38.964,38.964
	C1099.619,1082.16,1082.157,1099.622,1060.655,1099.622z"/>
<path style="fill:#772717;" d="M1060.665,502.903c147.247,0,281.164,57.06,380.855,150.272l204.93-204.9
	c-152.151-145.626-358.535-235.073-585.79-235.073S627.07,302.65,474.92,448.275l204.895,204.896
	C779.505,559.961,913.42,502.903,1060.665,502.903z"/>
<path style="fill:#772717;" d="M1060.665,1618.422c-145.983,0-278.866-56.085-378.28-147.881L477.41,1675.485
	c151.901,144.182,357.242,232.633,583.25,232.633s431.349-88.451,583.25-232.682l-204.928-204.928
	C1339.563,1562.323,1206.666,1618.422,1060.665,1618.422z"/>
<path style="fill:#E73B35;" d="M1028.33,1151.803c-39.642,0-75.493-16.222-101.282-42.389l0.011,0.028l0.213,0.575l0.334,0.897
	l0.241,0.63l0.339,0.875l0.241,0.616l0.396,0.985l0.184,0.456c0.19,0.463,0.383,0.924,0.576,1.384l0.216,0.505l0.416,0.967
	l0.235,0.538l0.414,0.932l0.237,0.527c0.206,0.455,0.414,0.908,0.625,1.359l0.186,0.395l0.476,1.003l0.29,0.602l0.397,0.81
	l0.292,0.59l0.489,0.971l0.21,0.411l0.693,1.335l0.252,0.474l0.483,0.902l0.298,0.55l0.471,0.855l0.291,0.524l0.748,1.318
	l0.066,0.114l0.697,1.195l0.321,0.543l0.492,0.82l0.321,0.528l0.53,0.86l0.296,0.479l0.779,1.232l0.312,0.482l0.542,0.834
	l0.347,0.528l0.519,0.777l0.355,0.529l0.602,0.879l0.381,0.553l0.759,1.08l0.274,0.384l0.641,0.89l0.326,0.448l0.636,0.861
	l0.301,0.404l0.901,1.19l0.286,0.371l0.662,0.854l0.384,0.487l0.592,0.743l0.386,0.482l0.731,0.896l0.236,0.289l0.962,1.152
	l0.361,0.424l0.654,0.764l0.391,0.451l0.663,0.755l0.375,0.426l0.938,1.044l0.301,0.33l0.81,0.88l0.365,0.392l0.724,0.766
	l0.374,0.393l0.781,0.81l0.309,0.319l1.065,1.078l0.293,0.292l0.815,0.804l0.39,0.38l0.784,0.757l0.335,0.321l1.078,1.016
	l0.062,0.058l1.128,1.038l0.384,0.347l0.784,0.704l0.406,0.36l0.873,0.765l0.301,0.263l1.178,1.008l0.234,0.197l0.95,0.793
	l0.422,0.347l0.832,0.678l0.373,0.302l1.056,0.84l0.178,0.14l1.218,0.946l0.383,0.291l0.843,0.639l0.466,0.348l0.895,0.661
	l0.351,0.258l1.246,0.898l0.271,0.191l1.002,0.704l0.471,0.326l0.827,0.565l0.468,0.317l1.046,0.698l0.239,0.159l1.321,0.858
	l0.308,0.196l1.01,0.639l0.424,0.265l0.98,0.604l0.39,0.238l1.293,0.775l0.141,0.083l1.246,0.726l0.445,0.254l0.923,0.523
	l0.476,0.267l1.037,0.57l0.341,0.188c0.458,0.248,0.917,0.494,1.378,0.737l0.289,0.151l1.112,0.578l0.431,0.22l1.034,0.522
	l0.408,0.203l1.333,0.652l0.078,0.038c0.478,0.231,0.96,0.458,1.442,0.685l0.365,0.17l1.077,0.495l0.452,0.204l1.106,0.492
	l0.354,0.156c0.482,0.21,0.962,0.418,1.447,0.623l0.268,0.112l1.191,0.495l0.484,0.197l1.012,0.406l0.492,0.196l1.169,0.452
	l0.314,0.121c0.488,0.186,0.978,0.369,1.469,0.549l0.415,0.15l1.067,0.384l0.537,0.189l1.022,0.353l0.5,0.171
	c0.497,0.168,0.995,0.333,1.495,0.495l0.052,0.016c0.491,0.16,0.983,0.315,1.476,0.469l0.436,0.135l1.082,0.329l0.521,0.156
	l1.223,0.355l0.304,0.087c0.504,0.144,1.011,0.284,1.519,0.422l0.458,0.123l1.115,0.293l0.547,0.141l1.018,0.255l0.57,0.141
	c1.032,0.25,2.069,0.489,3.111,0.717l0.461,0.099l1.106,0.234l0.56,0.115l1.121,0.222l0.48,0.093c0.52,0.099,1.04,0.196,1.562,0.289
	l0.34,0.059l1.269,0.218l0.51,0.084l1.12,0.178l0.556,0.086l1.324,0.194l0.268,0.038c0.541,0.076,1.084,0.148,1.627,0.217
	l0.397,0.049l1.238,0.149l0.519,0.059l1.215,0.131l0.44,0.046c0.55,0.055,1.101,0.108,1.654,0.158l0.085,0.007
	c0.52,0.046,1.041,0.089,1.564,0.129l0.461,0.035l1.184,0.083l0.577,0.037l1.262,0.072l0.377,0.021
	c0.545,0.027,1.09,0.052,1.637,0.073l0.466,0.016l1.225,0.039l0.524,0.013l1.228,0.023l0.486,0.007
	c0.559,0.006,1.118,0.01,1.677,0.01c78.532,0,142.195-63.662,142.195-142.194c0-0.613-0.003-1.225-0.011-1.835l-0.004-0.166
	c-0.007-0.552-0.018-1.103-0.032-1.653l-0.028-0.917l-0.029-0.886l-0.037-0.846l-0.044-0.989l-0.054-0.972l-0.045-0.799l-0.07-1.006
	l-0.057-0.822l-0.064-0.791l-0.083-0.999l-0.072-0.775l-0.097-1.02l-0.091-0.856l-0.097-0.906l-0.105-0.876l-0.111-0.917
	l-0.113-0.851l-0.12-0.898l-0.122-0.846l-0.139-0.945l-0.111-0.701l-0.167-1.045l-0.139-0.816l-0.157-0.913l-0.172-0.932
	l-0.146-0.79l-0.181-0.926l-0.164-0.827l-0.183-0.873l-0.178-0.842l-0.19-0.857l-0.197-0.878l-0.181-0.769l-0.225-0.947
	l-0.201-0.812l-0.215-0.856l-0.23-0.88l-0.219-0.831l-0.229-0.835l-0.233-0.839l-0.257-0.89l-0.224-0.77l-0.271-0.902l-0.237-0.778
	l-0.284-0.901l-0.234-0.735l-0.314-0.961l-0.225-0.68l-0.332-0.967l-0.234-0.678l-0.341-0.959l-0.238-0.665l-0.344-0.93
	l-0.264-0.708l-0.353-0.922l-0.26-0.672l-0.38-0.958l-0.26-0.648l-0.363-0.884l-0.31-0.746l-0.351-0.824l-0.321-0.748l-0.381-0.867
	l-0.303-0.682l-0.416-0.912l-0.301-0.656l-0.425-0.906l-0.299-0.629l-0.456-0.943l-0.291-0.594l-0.461-0.926l-0.313-0.619
	l-0.454-0.883l-0.339-0.652l-0.459-0.867l-0.333-0.621l-0.504-0.925l-0.31-0.563l-0.507-0.905l-0.346-0.609l-0.496-0.86
	l-0.356-0.609l-0.533-0.901l-0.319-0.532l-0.58-0.954l-0.302-0.49l-0.593-0.948l-0.325-0.513l-0.586-0.914l-0.33-0.507l-0.608-0.922
	l-0.334-0.5l-0.618-0.914l-0.334-0.487l-0.635-0.916l-0.334-0.475l-0.651-0.914l-0.337-0.467l-0.668-0.916l-0.334-0.451l-0.67-0.897
	l-0.356-0.469l-0.693-0.904l-0.325-0.419l-0.707-0.901l-0.355-0.445l-0.724-0.902l-0.329-0.403l-0.738-0.895l-0.357-0.427
	l-0.724-0.858l-0.378-0.442l-0.743-0.86l-0.355-0.404l-0.767-0.866l-0.362-0.403l-0.772-0.852l-0.365-0.397l-0.816-0.878
	l-0.293-0.312l-0.888-0.935l-0.271-0.281l-0.899-0.922l-0.113-0.116l0.001,0.003c5.551,15.205,8.576,31.622,8.576,48.748
	C1170.523,1088.141,1106.861,1151.803,1028.33,1151.803z"/>
<polygon style="fill:#E73B35;" points="927.048,1109.413 927.048,1109.414 927.048,1109.413 "/>
<path style="fill:#772717;" d="M1060.662,1016.675c-24.253,0-43.985,19.732-43.985,43.988c0,24.256,19.732,43.988,43.985,43.988
	c24.258,0,43.99-19.732,43.99-43.988C1104.653,1036.407,1084.921,1016.675,1060.662,1016.675z M1060.662,1099.661
	c-21.501,0-38.996-17.496-38.996-38.999c0-21.503,17.496-38.999,38.996-38.999c21.505,0,39.001,17.496,39.001,38.999
	C1099.664,1082.166,1082.168,1099.661,1060.662,1099.661z"/>
<path style="fill:#FFFFFF;" d="M1622.006,702.252c-1.924-3.667-6.45-5.074-10.105-3.155c-3.659,1.917-5.072,6.441-3.157,10.102
	c93.525,178.467,106.11,389.58,34.524,579.209c-1.461,3.867,0.492,8.186,4.361,9.645c0.867,0.329,1.759,0.484,2.641,0.484
	c3.02,0,5.871-1.846,7.001-4.843C1730.362,1100.073,1717.509,884.5,1622.006,702.252z"/>
<path style="fill:#FFFFFF;" d="M1720.369,701.901c-1.924-3.669-6.445-5.077-10.104-3.154c-3.659,1.919-5.072,6.441-3.158,10.102
	c93.53,178.47,106.11,389.585,34.524,579.209c-1.462,3.866,0.492,8.186,4.36,9.644c0.867,0.329,1.759,0.485,2.641,0.485
	c3.021,0,5.871-1.846,7.001-4.843C1828.73,1099.725,1815.872,884.154,1720.369,701.901z"/>
<path style="fill:#FFFFFF;" d="M480.795,1331.883c1.008,0,2.031-0.204,3.016-0.638c3.781-1.669,5.495-6.088,3.824-9.868
	c-81.33-184.346-79.713-395.829,4.443-580.223c1.72-3.759,0.058-8.197-3.698-9.915c-3.761-1.708-8.204-0.054-9.915,3.702
	c-85.929,188.275-87.576,404.226-4.522,592.477C475.177,1330.216,477.92,1331.883,480.795,1331.883z"/>
<path style="fill:#FFFFFF;" d="M390.217,724.984c-3.761-1.708-8.195-0.053-9.915,3.7c-85.934,188.275-87.581,404.226-4.526,592.479
	c1.233,2.799,3.976,4.465,6.85,4.465c1.009,0,2.032-0.205,3.016-0.638c3.781-1.669,5.496-6.088,3.825-9.869
	c-81.33-184.348-79.707-395.831,4.448-580.221C395.636,731.141,393.974,726.702,390.217,724.984z"/>
<path style="fill:#FFFFFF;" d="M1645.344,1482.584c-1.304-0.691-3.167-1.539-5.403-2.292c-2.235-0.762-4.843-1.411-7.639-1.869
	c-1.056-0.172-2.145-0.3-3.246-0.405c-0.101-1.147-0.224-2.283-0.389-3.386c-0.442-2.926-1.061-5.657-1.787-7.999
	c-0.717-2.341-1.524-4.292-2.179-5.657c-0.314-0.682-0.638-1.219-0.826-1.585l-0.33-0.561l-0.33,0.561
	c-0.188,0.366-0.51,0.902-0.825,1.585c-0.657,1.365-1.463,3.316-2.18,5.657c-0.726,2.341-1.344,5.072-1.786,7.999
	c-0.166,1.106-0.289,2.246-0.391,3.397c-1.1,0.107-2.188,0.235-3.245,0.409c-2.794,0.463-5.403,1.111-7.638,1.87
	c-2.237,0.751-4.099,1.595-5.403,2.282c-0.652,0.329-1.165,0.668-1.514,0.864l-0.535,0.346l0.535,0.346
	c0.35,0.196,0.863,0.534,1.514,0.864c1.305,0.687,3.167,1.531,5.403,2.282c2.235,0.76,4.844,1.407,7.638,1.87
	c1.054,0.173,2.138,0.301,3.234,0.408c0.101,1.152,0.223,2.292,0.387,3.398c0.438,2.927,1.057,5.658,1.785,7.999
	c0.72,2.341,1.53,4.292,2.189,5.657c0.317,0.682,0.641,1.219,0.83,1.585l0.332,0.561l0.333-0.561
	c0.189-0.366,0.513-0.902,0.829-1.585c0.661-1.365,1.47-3.316,2.189-5.657c0.727-2.341,1.348-5.072,1.786-7.999
	c0.163-1.102,0.285-2.239,0.385-3.387c1.096-0.105,2.182-0.233,3.235-0.404c2.796-0.458,5.404-1.108,7.639-1.869
	c2.236-0.753,4.099-1.602,5.403-2.292c0.653-0.331,1.165-0.671,1.514-0.869l0.536-0.348l-0.536-0.348
	C1646.508,1483.255,1645.996,1482.915,1645.344,1482.584z"/>
<path style="fill:#FFFFFF;" d="M1640.286,619.481c1.303,0.686,3.167,1.531,5.402,2.282c2.236,0.76,4.844,1.407,7.639,1.871
	c1.052,0.173,2.138,0.301,3.234,0.408c0.101,1.152,0.222,2.292,0.386,3.399c0.437,2.926,1.058,5.657,1.786,7.998
	c0.718,2.341,1.529,4.292,2.189,5.658c0.317,0.682,0.641,1.219,0.83,1.585l0.332,0.561l0.333-0.561
	c0.188-0.366,0.513-0.902,0.829-1.585c0.659-1.366,1.469-3.317,2.189-5.658c0.727-2.341,1.347-5.072,1.784-7.998
	c0.165-1.103,0.285-2.24,0.386-3.388c1.096-0.105,2.182-0.232,3.235-0.404c2.794-0.458,5.403-1.107,7.638-1.869
	c2.236-0.753,4.099-1.602,5.403-2.292c0.652-0.331,1.164-0.671,1.514-0.869l0.535-0.348l-0.535-0.348
	c-0.349-0.198-0.862-0.537-1.514-0.869c-1.305-0.691-3.167-1.539-5.403-2.292c-2.235-0.762-4.844-1.411-7.638-1.868
	c-1.058-0.173-2.146-0.3-3.246-0.405c-0.102-1.148-0.224-2.284-0.39-3.386c-0.442-2.926-1.061-5.657-1.786-7.998
	c-0.717-2.341-1.524-4.292-2.18-5.657c-0.314-0.683-0.639-1.219-0.825-1.585l-0.33-0.561l-0.331,0.561
	c-0.186,0.366-0.51,0.902-0.825,1.585c-0.655,1.365-1.461,3.316-2.179,5.657c-0.726,2.341-1.345,5.072-1.787,7.998
	c-0.166,1.107-0.288,2.246-0.39,3.398c-1.1,0.107-2.189,0.235-3.245,0.409c-2.795,0.463-5.403,1.11-7.639,1.87
	c-2.235,0.751-4.099,1.595-5.402,2.282c-0.653,0.329-1.164,0.668-1.514,0.864l-0.536,0.346l0.536,0.346
	C1639.122,618.812,1639.634,619.151,1640.286,619.481z"/>
<path style="fill:#FFFFFF;" d="M501.322,1482.904c-1.303-0.691-3.167-1.539-5.402-2.292c-2.236-0.762-4.844-1.411-7.639-1.869
	c-1.056-0.172-2.145-0.299-3.246-0.405c-0.101-1.147-0.224-2.284-0.388-3.386c-0.443-2.926-1.061-5.657-1.787-7.998
	c-0.717-2.341-1.524-4.292-2.179-5.657c-0.314-0.683-0.638-1.219-0.824-1.585l-0.332-0.56l-0.33,0.56
	c-0.187,0.366-0.51,0.902-0.825,1.585c-0.656,1.365-1.463,3.316-2.18,5.657c-0.725,2.341-1.343,5.072-1.786,7.998
	c-0.166,1.106-0.289,2.246-0.391,3.397c-1.1,0.107-2.188,0.235-3.245,0.409c-2.794,0.463-5.403,1.11-7.638,1.87
	c-2.236,0.751-4.099,1.595-5.403,2.282c-0.652,0.329-1.164,0.668-1.514,0.864l-0.534,0.346l0.534,0.346
	c0.35,0.196,0.863,0.535,1.514,0.864c1.305,0.687,3.167,1.531,5.403,2.282c2.235,0.76,4.844,1.407,7.638,1.871
	c1.054,0.173,2.139,0.301,3.234,0.408c0.101,1.151,0.223,2.292,0.388,3.398c0.437,2.926,1.057,5.657,1.784,7.998
	c0.72,2.341,1.53,4.292,2.189,5.657c0.317,0.682,0.642,1.219,0.83,1.584l0.332,0.561l0.333-0.561
	c0.189-0.365,0.513-0.902,0.83-1.584c0.66-1.366,1.47-3.317,2.189-5.657c0.727-2.341,1.348-5.072,1.786-7.998
	c0.163-1.103,0.285-2.24,0.385-3.387c1.097-0.105,2.182-0.232,3.235-0.404c2.795-0.458,5.403-1.108,7.639-1.869
	c2.235-0.753,4.099-1.602,5.402-2.292c0.652-0.331,1.164-0.671,1.514-0.869l0.536-0.348l-0.536-0.348
	C502.487,1483.575,501.975,1483.235,501.322,1482.904z"/>
<path style="fill:#FFFFFF;" d="M532.658,669.364c1.1,0.579,2.672,1.292,4.559,1.925c1.885,0.641,4.086,1.187,6.445,1.578
	c0.889,0.146,1.804,0.254,2.728,0.344c0.085,0.971,0.188,1.933,0.327,2.867c0.369,2.469,0.893,4.773,1.507,6.748
	c0.606,1.976,1.29,3.621,1.846,4.773c0.267,0.576,0.541,1.029,0.7,1.337l0.28,0.474l0.28-0.474c0.16-0.308,0.432-0.761,0.701-1.337
	c0.556-1.153,1.24-2.798,1.846-4.773c0.614-1.975,1.138-4.279,1.505-6.748c0.139-0.931,0.242-1.89,0.327-2.858
	c0.924-0.089,1.84-0.196,2.73-0.341c2.357-0.386,4.557-0.934,6.444-1.577c1.887-0.635,3.458-1.351,4.559-1.934
	c0.549-0.279,0.982-0.566,1.277-0.732l0.452-0.294l-0.452-0.294c-0.295-0.167-0.727-0.453-1.277-0.732
	c-1.101-0.583-2.672-1.299-4.559-1.934c-1.887-0.643-4.087-1.19-6.444-1.576c-0.892-0.145-1.812-0.253-2.74-0.342
	c-0.085-0.968-0.189-1.927-0.329-2.857c-0.373-2.469-0.894-4.773-1.507-6.748c-0.606-1.975-1.285-3.621-1.839-4.773
	c-0.265-0.576-0.538-1.029-0.695-1.337l-0.279-0.473l-0.279,0.473c-0.157,0.308-0.431,0.761-0.695,1.337
	c-0.554,1.152-1.234,2.798-1.839,4.773c-0.613,1.975-1.134,4.28-1.508,6.748c-0.139,0.934-0.242,1.895-0.329,2.867
	c-0.928,0.09-1.846,0.199-2.738,0.345c-2.358,0.391-4.56,0.937-6.445,1.578c-1.887,0.634-3.459,1.346-4.559,1.925
	c-0.551,0.278-0.983,0.564-1.278,0.729l-0.452,0.292l0.452,0.292C531.675,668.8,532.108,669.086,532.658,669.364z"/>
<path style="fill:#FFFFFF;" d="M482.771,589.282c1.305,0.687,3.167,1.531,5.403,2.282c2.235,0.76,4.844,1.407,7.638,1.871
	c1.054,0.173,2.138,0.301,3.234,0.408c0.101,1.152,0.223,2.292,0.388,3.399c0.437,2.927,1.057,5.657,1.784,7.998
	c0.72,2.341,1.53,4.292,2.189,5.657c0.316,0.682,0.641,1.219,0.829,1.585l0.333,0.561l0.332-0.561
	c0.189-0.366,0.513-0.903,0.83-1.585c0.659-1.365,1.47-3.316,2.189-5.657c0.727-2.341,1.347-5.072,1.785-7.998
	c0.164-1.103,0.286-2.239,0.386-3.387c1.096-0.106,2.181-0.233,3.235-0.404c2.794-0.458,5.403-1.107,7.638-1.869
	c2.236-0.753,4.098-1.602,5.403-2.292c0.653-0.331,1.164-0.671,1.514-0.869l0.536-0.348l-0.536-0.348
	c-0.35-0.198-0.861-0.537-1.514-0.868c-1.305-0.691-3.167-1.539-5.403-2.292c-2.235-0.762-4.844-1.411-7.638-1.869
	c-1.057-0.173-2.146-0.3-3.246-0.405c-0.101-1.147-0.224-2.284-0.389-3.387c-0.444-2.926-1.061-5.657-1.787-7.998
	c-0.717-2.341-1.524-4.292-2.18-5.657c-0.314-0.683-0.637-1.219-0.825-1.585l-0.33-0.561l-0.33,0.561
	c-0.188,0.366-0.51,0.902-0.825,1.585c-0.657,1.365-1.463,3.316-2.18,5.657c-0.726,2.341-1.343,5.072-1.785,7.998
	c-0.166,1.107-0.289,2.246-0.391,3.398c-1.1,0.106-2.189,0.235-3.245,0.409c-2.794,0.463-5.403,1.111-7.638,1.87
	c-2.236,0.751-4.098,1.595-5.403,2.282c-0.651,0.329-1.164,0.668-1.514,0.864l-0.536,0.346l0.536,0.346
	C481.607,588.614,482.12,588.953,482.771,589.282z"/>
<path style="fill:#FFFFFF;" d="M1728.346,1389.208c-1.733-0.918-4.209-2.045-7.179-3.046c-2.971-1.012-6.437-1.875-10.15-2.483
	c-1.404-0.229-2.851-0.398-4.313-0.538c-0.135-1.525-0.298-3.034-0.517-4.499c-0.587-3.888-1.409-7.517-2.374-10.627
	c-0.952-3.111-2.024-5.703-2.896-7.517c-0.417-0.907-0.847-1.62-1.095-2.106c-0.268-0.486-0.439-0.745-0.439-0.745
	s-0.172,0.259-0.438,0.745c-0.249,0.486-0.678,1.199-1.097,2.106c-0.872,1.815-1.943,4.406-2.895,7.517
	c-0.964,3.11-1.786,6.739-2.374,10.627c-0.221,1.47-0.384,2.984-0.519,4.514c-1.462,0.142-2.908,0.313-4.312,0.543
	c-3.714,0.615-7.179,1.476-10.15,2.485c-2.971,0.998-5.446,2.119-7.179,3.032c-0.866,0.437-1.547,0.887-2.011,1.147
	c-0.464,0.28-0.713,0.459-0.713,0.459s0.248,0.18,0.713,0.46c0.464,0.26,1.145,0.71,2.011,1.147
	c1.734,0.912,4.208,2.034,7.179,3.032c2.971,1.01,6.436,1.87,10.15,2.486c1.399,0.229,2.841,0.4,4.297,0.542
	c0.134,1.53,0.296,3.045,0.514,4.516c0.581,3.888,1.404,7.517,2.371,10.627c0.956,3.111,2.032,5.703,2.909,7.517
	c0.421,0.907,0.852,1.62,1.103,2.105c0.268,0.486,0.441,0.745,0.441,0.745s0.173-0.259,0.442-0.745
	c0.251-0.485,0.682-1.198,1.102-2.105c0.876-1.815,1.953-4.407,2.909-7.517c0.966-3.11,1.791-6.739,2.372-10.627
	c0.218-1.465,0.379-2.975,0.511-4.501c1.458-0.14,2.899-0.308,4.299-0.536c3.713-0.608,7.179-1.471,10.15-2.483
	c2.969-1.001,5.445-2.128,7.179-3.046c0.866-0.44,1.547-0.892,2.011-1.154c0.464-0.281,0.711-0.463,0.711-0.463
	s-0.247-0.181-0.711-0.462C1729.893,1390.1,1729.212,1389.648,1728.346,1389.208z"/>
</svg>
