<?xml version="1.0" encoding="utf-8"?>
<!-- Generator: Adobe Illustrator 27.5.0, SVG Export Plug-In . SVG Version: 6.00 Build 0)  -->
<svg version="1.1" id="Capa_1" xmlns="http://www.w3.org/2000/svg" xmlns:xlink="http://www.w3.org/1999/xlink" x="0px" y="0px"
	 viewBox="0 0 2122 2122" style="enable-background:new 0 0 2122 2122;" xml:space="preserve">
<g>
	<path style="fill:#3F1C0F;" d="M1832.823,479.418c-15.243-6.862-32.108-10.718-49.849-10.726H297.556
		c-67.28,0.028-122.202,54.954-122.23,122.23v922.415c0.025,61.592,46.07,112.801,105.475,121.041
		c15.291,6.895,32.226,10.765,50.06,10.765h36.594h1412.226h36.604c67.4,0,122.23-54.833,122.23-122.23V600.498
		C1938.516,538.712,1892.424,487.52,1832.823,479.418z M221.807,1589.086c-19.465-19.476-31.512-46.256-31.515-75.748V590.923
		c0.003-29.492,12.05-56.272,31.515-75.748c19.475-19.465,46.255-31.513,75.75-31.515h1485.418
		c29.493,0.002,56.274,12.05,75.748,31.515c19.465,19.476,31.513,46.256,31.515,75.748v922.415
		c-0.002,29.492-12.05,56.272-31.515,75.748c-19.474,19.465-46.255,31.513-75.748,31.515h-42.503l-35.292-89.534
		c-0.875-2.853-6.2-19.185-20.61-35.829c-7.787-8.977-18.274-18.015-32.077-24.778c-13.794-6.77-30.872-11.21-51.515-11.201H479.601
		c-20.443-0.009-37.418,4.437-51.165,11.205c-20.649,10.156-33.904,25.35-41.96,37.899c-7.436,11.588-10.513,20.907-11.068,22.683
		l-35.349,89.555h-42.502C268.062,1620.599,241.282,1608.551,221.807,1589.086z M356.15,1620.601l33.405-84.64l0.089-0.3
		c0.111-0.435,5.039-16.154,18.61-31.318c6.796-7.61,15.714-15.101,27.337-20.716c11.632-5.609,26-9.393,44.009-9.401h1121.378
		c18.52,0.009,33.167,3.919,44.928,9.674c17.613,8.63,28.885,21.595,35.802,32.511c3.45,5.448,5.79,10.357,7.245,13.847
		c0.727,1.745,1.234,3.134,1.55,4.057c0.157,0.461,0.268,0.806,0.334,1.02l0.068,0.222l0.005,0.014l-0.001,0l0.1,0.356
		l33.377,84.675H356.15z"/>
	<path style="fill:#FFCF53;" d="M1858.723,515.174c-19.474-19.465-46.255-31.513-75.748-31.515H297.556
		c-29.494,0.002-56.275,12.05-75.75,31.515c-19.465,19.476-31.512,46.256-31.515,75.748v922.415
		c0.003,29.492,12.05,56.272,31.515,75.748c19.475,19.465,46.255,31.513,75.75,31.515h42.502l35.349-89.555
		c0.555-1.777,3.632-11.095,11.068-22.683c8.057-12.549,21.311-27.743,41.96-37.899c13.748-6.768,30.722-11.214,51.165-11.205
		h1121.378c20.643-0.009,37.721,4.431,51.515,11.201c13.803,6.763,24.29,15.801,32.077,24.778
		c14.41,16.645,19.735,32.977,20.61,35.829l35.292,89.534h42.503c29.493-0.002,56.274-12.05,75.748-31.515
		c19.465-19.476,31.513-46.256,31.515-75.748V590.923C1890.236,561.431,1878.188,534.65,1858.723,515.174z"/>
	<path style="fill:#6C77B8;" d="M1723.972,605.675c-19.475-19.465-46.255-31.513-75.748-31.515H929.429
		c-1.385,29.334-2.149,58.686-2.085,88.007c0.095,43.361,1.582,87.253,5.593,130.905h621.066
		c67.277,0.028,122.201,54.952,122.229,122.23v155.833c-0.029,67.276-54.951,122.202-122.229,122.23h-460.404
		c3.197,3.501,6.411,6.985,9.689,10.409c52.875,55.231,115.81,99.834,183.19,135.726h361.746
		c29.493-0.002,56.273-12.05,75.748-31.514c19.465-19.475,31.513-46.256,31.515-75.749V681.424
		C1755.485,651.93,1743.437,625.15,1723.972,605.675z"/>
	<path style="fill:#595EA7;" d="M1103.288,1203.774c-3.278-3.423-6.492-6.908-9.689-10.409H557.963
		c-67.275-0.029-122.202-54.954-122.23-122.23V915.302c0.028-67.279,54.956-122.202,122.23-122.23h374.974
		c-4.011-43.652-5.498-87.544-5.593-130.905c-0.063-29.321,0.7-58.673,2.085-88.007H432.323
		c-29.492,0.002-56.272,12.049-75.749,31.515c-19.465,19.475-31.513,46.256-31.516,75.749v550.814
		c0.003,29.493,12.051,56.274,31.516,75.749c19.477,19.465,46.257,31.513,75.749,31.514h854.155
		C1219.098,1303.609,1156.163,1259.005,1103.288,1203.774z"/>
	<path style="fill:#F087AD;" d="M1629.751,839.553c-19.475-19.465-46.255-31.513-75.748-31.514H931.832
		c0.944,19.616,2.983,39.189,5.986,58.579c3.116,20.098,7.245,40.044,12.306,59.751h23.238h159.84h96.223
		c1.489,0.002,2.948,0.115,4.391,0.286c18.561,2.203,33,17.988,33.026,37.131v97.285c-0.028,20.629-16.788,37.389-37.417,37.417
		h-75.423h-130.451c18.665,29.131,40.465,56.42,65.901,79.909h464.55c29.493-0.002,56.273-12.05,75.748-31.515
		c19.465-19.476,31.513-46.257,31.515-75.748V915.302C1661.264,885.809,1649.216,859.029,1629.751,839.553z"/>
	<path style="fill:#ED6E9F;" d="M1023.552,1098.489h-61.86h-79.148c-20.635-0.028-37.391-16.79-37.417-37.417v-97.285
		c0.025-19.34,14.755-35.28,33.598-37.219c1.256-0.13,2.53-0.197,3.82-0.199h67.579c-5.061-19.707-9.19-39.653-12.306-59.751
		c-3.003-19.39-5.042-38.964-5.986-58.579H557.963c-29.491,0.001-56.272,12.049-75.748,31.514
		c-19.465,19.476-31.513,46.256-31.516,75.749v155.833c0.002,29.491,12.051,56.272,31.516,75.748
		c19.477,19.465,46.258,31.513,75.748,31.515h531.49C1064.017,1154.909,1042.217,1127.62,1023.552,1098.489z"/>
	<path style="fill:#FFFFFF;" d="M979.088,994.573v0.016c-0.063,29.915-3.832,60.04-12.51,88.934h181.774
		c-0.403-1.152-0.872-2.267-1.258-3.429c-11.699-35.225-15.647-72.185-15.65-108.642c-0.001-1.603,0.009-3.204,0.024-4.802v0.005
		c0.078-8.461,0.417-16.897,0.864-25.319H975.479c2.289,17.39,3.609,34.931,3.609,52.541V994.573z"/>
	<g>
		<path style="fill:#3F1C0F;" d="M1233.817,926.655c-1.443-0.172-2.902-0.284-4.391-0.286h-96.223h-159.84h-23.238h-67.579
			c-1.29,0.002-2.564,0.069-3.82,0.199c-18.843,1.939-33.572,17.878-33.598,37.219v97.285c0.027,20.628,16.783,37.389,37.417,37.417
			h79.148h61.86h130.451h75.423c20.629-0.029,37.389-16.788,37.417-37.417v-97.285
			C1266.816,944.643,1252.377,928.859,1233.817,926.655z M964.123,994.557c-0.062,30.214-4.1,60.408-13.241,88.965h-68.337
			c-6.171-0.002-11.748-2.509-15.851-6.602c-4.091-4.103-6.598-9.68-6.6-15.849v-97.285c0.003-6.17,2.509-11.747,6.6-15.85
			c4.102-4.092,9.68-6.598,15.851-6.6h77.836c2.379,17.443,3.742,34.989,3.742,52.541V994.557z M966.578,1083.522
			c8.678-28.894,12.447-59.019,12.51-88.934v-0.016v-0.696c0-17.61-1.32-35.151-3.609-52.541h156.852
			c-0.447,8.422-0.785,16.858-0.864,25.319v-0.005c-0.016,1.599-0.026,3.199-0.024,4.802c0.003,36.458,3.951,73.418,15.65,108.642
			c0.386,1.161,0.855,2.276,1.258,3.429H966.578z M1251.876,1061.072c-0.003,6.168-2.509,11.746-6.601,15.849
			c-4.104,4.093-9.682,6.6-15.849,6.602h-65.137c-1.02-2.708-2.078-5.403-2.991-8.149c-11.031-33.187-14.891-68.539-14.888-103.922
			c0-1.549,0.008-3.1,0.024-4.652v-0.005c0.079-8.48,0.422-16.968,0.885-25.458h82.106c6.168,0.002,11.746,2.508,15.849,6.601
			c4.092,4.103,6.599,9.68,6.601,15.849V1061.072z"/>
	</g>
	<path style="fill:#FFFFFF;" d="M1578.616,998.453c-4.134,0-7.484-3.35-7.484-7.484c0-4.133,3.35-7.483,7.484-7.483
		c11.659,0,23.318,0,34.979,0c-1.191-32.036-13.503-61.16-33.216-83.734c-8.591,8.591-17.182,17.181-25.771,25.772
		c-2.923,2.922-7.661,2.923-10.584,0c-2.924-2.923-2.924-7.661,0-10.584c8.639-8.64,17.28-17.28,25.919-25.92
		c-22.364-20.529-51.604-33.612-83.913-35.368c0.005,0.103,0.03,0.199,0.03,0.303c0,12.326,0,24.65,0.001,36.976
		c0,4.133-3.351,7.484-7.484,7.484c-4.134,0-7.484-3.351-7.484-7.484c-0.001-12.326-0.001-24.65,0-36.976h0.001
		c0-0.104,0.025-0.2,0.03-0.303c-32.308,1.757-61.545,14.838-83.909,35.368c8.639,8.64,17.279,17.28,25.92,25.92h0.001
		c2.922,2.923,2.922,7.661-0.001,10.584c-2.924,2.922-7.662,2.922-10.584,0c-8.591-8.591-17.183-17.182-25.772-25.773
		c-19.712,22.574-32.025,51.698-33.216,83.735c11.659,0,23.319,0,34.98,0c4.132,0,7.482,3.351,7.482,7.483
		c0,4.133-3.35,7.484-7.482,7.484c-11.572,0-23.141,0-34.711,0c2.266,31.346,15.172,59.69,35.186,81.493
		c7.844-7.844,15.689-15.689,23.533-23.533h0.001c2.922-2.923,7.66-2.922,10.582,0c2.922,2.922,2.922,7.661,0,10.583
		c-7.795,7.795-15.59,15.591-23.385,23.385c22.014,19.222,50.248,31.428,81.343,33.126c-0.001-10.835-0.001-21.667,0-32.502h0.001
		c0-4.132,3.35-7.482,7.482-7.482c4.132,0,7.482,3.35,7.482,7.482c0,10.835,0,21.668,0.001,32.502
		c31.096-1.698,59.333-13.904,81.346-33.127c-7.795-7.794-15.589-15.59-23.383-23.384c-2.923-2.922-2.923-7.66-0.001-10.583
		c2.922-2.923,7.66-2.923,10.583,0c7.844,7.844,15.688,15.688,23.532,23.532c20.017-21.803,32.923-50.147,35.187-81.493
		C1601.755,998.453,1590.186,998.453,1578.616,998.453z"/>
	<path style="fill:#3F1C0F;" d="M1628.69,988.583c-0.005-82.908-67.205-150.106-150.112-150.11
		c-82.903,0.005-150.103,67.203-150.108,150.11c0.005,82.905,67.205,150.103,150.108,150.108
		C1561.485,1138.686,1628.685,1071.488,1628.69,988.583z M1578.139,1079.946c-7.844-7.844-15.688-15.688-23.532-23.532
		c-2.923-2.923-7.661-2.922-10.583,0c-2.922,2.922-2.922,7.661,0.001,10.583c7.794,7.795,15.588,15.59,23.383,23.384
		c-22.013,19.223-50.25,31.429-81.346,33.127c-0.001-10.835-0.001-21.667-0.001-32.502c0-4.132-3.351-7.482-7.482-7.482
		c-4.132,0-7.482,3.35-7.482,7.482h-0.001c-0.001,10.835-0.001,21.668,0,32.502c-31.094-1.698-59.328-13.904-81.343-33.126
		c7.795-7.795,15.59-15.59,23.385-23.385c2.922-2.922,2.922-7.66,0-10.583c-2.922-2.923-7.66-2.923-10.582,0h-0.001
		c-7.844,7.844-15.689,15.689-23.533,23.533c-20.014-21.803-32.921-50.147-35.186-81.493c11.57,0,23.14,0,34.711,0
		c4.132,0,7.482-3.35,7.482-7.484c0-4.133-3.35-7.483-7.482-7.483c-11.661,0-23.322,0-34.98,0
		c1.191-32.036,13.504-61.161,33.216-83.735c8.589,8.591,17.182,17.182,25.772,25.773c2.922,2.922,7.66,2.923,10.584,0
		c2.923-2.923,2.923-7.661,0.001-10.584h-0.001c-8.641-8.64-17.28-17.28-25.92-25.92c22.364-20.53,51.602-33.611,83.909-35.368
		c-0.005,0.103-0.03,0.199-0.03,0.303h-0.001c-0.001,12.326-0.001,24.65,0,36.976c0,4.133,3.35,7.484,7.484,7.484
		c4.133,0,7.484-3.351,7.484-7.484c-0.001-12.326-0.001-24.65-0.001-36.976c0-0.104-0.025-0.2-0.03-0.303
		c32.309,1.757,61.549,14.839,83.913,35.368c-8.639,8.64-17.28,17.28-25.919,25.92c-2.924,2.923-2.924,7.661,0,10.584
		c2.923,2.922,7.661,2.922,10.584,0c8.59-8.591,17.18-17.181,25.771-25.772c19.714,22.574,32.025,51.698,33.216,83.734
		c-11.661,0-23.32,0-34.979,0c-4.134,0-7.484,3.351-7.484,7.483c0,4.133,3.35,7.484,7.484,7.484c11.57,0,23.138,0,34.71,0
		C1611.062,1029.799,1598.156,1058.143,1578.139,1079.946z"/>
	<path style="fill:#FFFFFF;" d="M733.426,983.487c11.654,0,23.313,0,34.974,0c-1.191-32.036-13.503-61.16-33.215-83.735
		c-8.589,8.59-17.177,17.181-25.767,25.773c-2.923,2.922-7.661,2.923-10.585,0c-2.923-2.923-2.923-7.661,0-10.584
		c8.639-8.639,17.275-17.28,25.916-25.921c-22.363-20.529-51.601-33.611-83.909-35.367c0.005,0.103,0.03,0.199,0.03,0.303
		c0,12.326,0,24.65,0.001,36.976c0,4.133-3.351,7.484-7.483,7.484c-4.134,0-7.484-3.351-7.484-7.484
		c-0.001-12.326-0.001-24.65,0-36.976h0.001c0-0.104,0.025-0.2,0.03-0.303c-32.311,1.757-61.55,14.839-83.914,35.368
		c8.639,8.64,17.279,17.28,25.919,25.92h0.002c2.922,2.923,2.922,7.661-0.002,10.584c-2.923,2.922-7.661,2.922-10.583,0
		c-8.59-8.591-17.181-17.182-25.772-25.772c-19.713,22.574-32.025,51.698-33.216,83.734c11.659,0,23.319,0,34.98,0
		c4.132,0,7.482,3.351,7.482,7.483c0,4.133-3.35,7.484-7.482,7.484c-11.571,0-23.141,0-34.711,0
		c2.266,31.346,15.172,59.69,35.186,81.493c7.845-7.844,15.689-15.688,23.533-23.532h0.002c2.922-2.923,7.66-2.922,10.582,0
		c2.922,2.922,2.922,7.661,0,10.583c-7.795,7.795-15.591,15.59-23.383,23.385c22.013,19.222,50.25,31.428,81.346,33.126
		c-0.001-10.835-0.001-21.667,0-32.502h0.001c0-4.132,3.349-7.482,7.482-7.482c4.131,0,7.482,3.35,7.482,7.482
		c0,10.835,0,21.668,0.001,32.502c31.096-1.698,59.33-13.904,81.343-33.126c-7.795-7.796-15.587-15.591-23.38-23.385
		c-2.924-2.922-2.924-7.66-0.002-10.583c2.922-2.923,7.66-2.923,10.584,0c7.845,7.845,15.685,15.689,23.53,23.533
		c20.014-21.802,32.92-50.147,35.185-81.493c-11.571,0-23.14,0-34.705,0c-4.134,0-7.483-3.35-7.483-7.484
		C725.942,986.837,729.292,983.487,733.426,983.487z"/>
	<path style="fill:#3F1C0F;" d="M633.388,838.472c-82.908,0.005-150.109,67.203-150.113,150.11
		c0.005,82.905,67.205,150.103,150.113,150.108c82.906-0.005,150.103-67.203,150.107-150.108
		C783.491,905.676,716.294,838.477,633.388,838.472z M733.426,998.453c11.565,0,23.134,0,34.705,0
		c-2.265,31.346-15.171,59.691-35.185,81.493c-7.844-7.844-15.684-15.688-23.53-23.533c-2.924-2.923-7.662-2.922-10.584,0
		c-2.922,2.922-2.922,7.661,0.002,10.583c7.793,7.794,15.585,15.589,23.38,23.385c-22.013,19.222-50.247,31.428-81.343,33.126
		c-0.001-10.835-0.001-21.667-0.001-32.502c0-4.132-3.351-7.482-7.482-7.482c-4.133,0-7.482,3.35-7.482,7.482h-0.001
		c-0.001,10.835-0.001,21.668,0,32.502c-31.097-1.698-59.333-13.904-81.346-33.126c7.793-7.795,15.588-15.59,23.383-23.385
		c2.922-2.922,2.922-7.66,0-10.583c-2.922-2.923-7.66-2.923-10.582,0h-0.002c-7.844,7.844-15.688,15.688-23.533,23.532
		c-20.015-21.803-32.921-50.147-35.186-81.493c11.57,0,23.14,0,34.711,0c4.132,0,7.482-3.35,7.482-7.484
		c0-4.133-3.35-7.483-7.482-7.483c-11.661,0-23.322,0-34.98,0c1.191-32.036,13.503-61.16,33.216-83.734
		c8.591,8.591,17.182,17.182,25.772,25.772c2.922,2.922,7.66,2.923,10.583,0c2.924-2.923,2.924-7.661,0.002-10.584h-0.002
		c-8.64-8.64-17.28-17.28-25.919-25.92c22.364-20.529,51.604-33.612,83.914-35.368c-0.005,0.103-0.03,0.199-0.03,0.303h-0.001
		c-0.001,12.326-0.001,24.65,0,36.976c0,4.133,3.35,7.484,7.484,7.484c4.133,0,7.483-3.351,7.483-7.484
		c-0.001-12.326-0.001-24.65-0.001-36.976c0-0.104-0.026-0.2-0.03-0.303c32.308,1.757,61.546,14.839,83.909,35.367
		c-8.64,8.641-17.276,17.281-25.916,25.921c-2.923,2.923-2.923,7.661,0,10.584c2.924,2.922,7.662,2.922,10.585,0
		c8.591-8.592,17.178-17.183,25.767-25.773c19.713,22.575,32.024,51.698,33.215,83.735c-11.661,0-23.32,0-34.974,0
		c-4.134,0-7.483,3.351-7.483,7.483C725.942,995.103,729.292,998.453,733.426,998.453z"/>
	<path style="fill:#6C77B8;" d="M1691.009,1535.926l-0.1-0.356l0.001,0l-0.005-0.014l-0.068-0.222
		c-0.066-0.214-0.177-0.559-0.334-1.02c-0.316-0.923-0.822-2.312-1.55-4.057c-1.454-3.49-3.794-8.399-7.245-13.847
		c-6.917-10.916-18.19-23.881-35.802-32.511c-11.761-5.755-26.408-9.665-44.928-9.674H479.601
		c-18.009,0.009-32.377,3.793-44.009,9.401c-11.623,5.615-20.542,13.106-27.337,20.716c-13.571,15.164-18.499,30.884-18.61,31.318
		l-0.089,0.3l-33.405,84.64h1368.236L1691.009,1535.926z"/>
	<path style="fill:#3F1C0F;" d="M432.323,1354.467h1215.901c67.277-0.028,122.201-54.952,122.229-122.23V681.424
		c-0.028-67.278-54.952-122.202-122.229-122.23H432.323c-67.275,0.028-122.202,54.952-122.23,122.23v550.814
		C310.12,1299.516,365.047,1354.439,432.323,1354.467z M325.058,681.424c0.003-29.493,12.051-56.273,31.516-75.749
		c19.477-19.465,46.257-31.513,75.749-31.515h497.106h718.795c29.493,0.002,56.273,12.05,75.748,31.515
		c19.465,19.475,31.513,46.256,31.515,75.749v550.814c-0.002,29.493-12.05,56.274-31.515,75.749
		c-19.475,19.465-46.255,31.513-75.748,31.514h-361.746H432.323c-29.492-0.002-56.272-12.049-75.749-31.514
		c-19.465-19.475-31.513-46.256-31.516-75.749V681.424z"/>
	<path style="fill:#3F1C0F;" d="M502.753,1509.799c-12.833,0-23.235,10.624-23.235,23.727c0,13.106,10.402,23.73,23.235,23.73
		c12.833,0,23.24-10.624,23.24-23.73C525.992,1520.422,515.586,1509.799,502.753,1509.799z"/>
	<path style="fill:#3F1C0F;" d="M570.772,1509.799c-12.833,0-23.24,10.624-23.24,23.727c0,13.106,10.407,23.73,23.24,23.73
		c12.833,0,23.235-10.624,23.235-23.73C594.007,1520.422,583.605,1509.799,570.772,1509.799z"/>
	<path style="fill:#3F1C0F;" d="M1577.774,1509.799c-12.833,0-23.235,10.624-23.235,23.727c0,13.106,10.402,23.73,23.235,23.73
		c12.833,0,23.24-10.624,23.24-23.73C1601.013,1520.422,1590.606,1509.799,1577.774,1509.799z"/>
	<path style="fill:#3F1C0F;" d="M1510.339,1509.799c-12.833,0-23.235,10.624-23.235,23.727c0,13.106,10.402,23.73,23.235,23.73
		c12.833,0,23.235-10.624,23.235-23.73C1533.574,1520.422,1523.172,1509.799,1510.339,1509.799z"/>
	<path style="fill:#3F1C0F;" d="M1676.232,1071.135V915.302c-0.029-67.279-54.952-122.202-122.229-122.23H932.936H557.963
		c-67.275,0.028-122.202,54.951-122.23,122.23v155.833c0.028,67.276,54.956,122.201,122.23,122.23h535.636h460.404
		C1621.281,1193.337,1676.203,1138.411,1676.232,1071.135z M1089.453,1178.398h-531.49c-29.49-0.002-56.272-12.05-75.748-31.515
		c-19.465-19.476-31.513-46.257-31.516-75.748V915.302c0.002-29.493,12.051-56.274,31.516-75.749
		c19.477-19.465,46.257-31.513,75.748-31.514h373.869h622.171c29.493,0.001,56.273,12.049,75.748,31.514
		c19.465,19.476,31.513,46.256,31.515,75.749v155.833c-0.002,29.492-12.05,56.273-31.515,75.748
		c-19.475,19.465-46.255,31.513-75.748,31.515H1089.453z"/>
	<path style="fill:#809CD1;" d="M1351.559,732.205h292.587c28.058,0,51.016-22.955,51.016-51.013
		c0-28.059-22.957-51.013-51.016-51.013h-292.587c-28.058,0-51.01,22.954-51.01,51.013
		C1300.548,709.251,1323.501,732.205,1351.559,732.205z"/>
	<path style="fill:#3F1C0F;" d="M266.385,542.948c-12.833,0-23.235,10.624-23.235,23.729c0,13.104,10.402,23.727,23.235,23.727
		c12.833,0,23.235-10.624,23.235-23.727C289.62,553.571,279.218,542.948,266.385,542.948z"/>
	<path style="fill:#3F1C0F;" d="M1814.147,590.404c12.833,0,23.235-10.624,23.235-23.727c0-13.106-10.402-23.729-23.235-23.729
		c-12.833,0-23.235,10.624-23.235,23.729C1790.911,579.78,1801.313,590.404,1814.147,590.404z"/>
	<path style="fill:#3F1C0F;" d="M266.385,1509.799c-12.833,0-23.235,10.624-23.235,23.727c0,13.106,10.402,23.73,23.235,23.73
		c12.833,0,23.235-10.624,23.235-23.73C289.62,1520.422,279.218,1509.799,266.385,1509.799z"/>
	<path style="fill:#3F1C0F;" d="M1814.147,1557.255c12.833,0,23.235-10.624,23.235-23.73c0-13.103-10.402-23.727-23.235-23.727
		c-12.833,0-23.235,10.624-23.235,23.727C1790.911,1546.631,1801.313,1557.255,1814.147,1557.255z"/>
	<path style="fill:#FFEB78;" d="M1825.645,652.659c-12.78,0-23.24,10.458-23.24,23.237v752.471c0,12.779,10.46,23.235,23.24,23.235
		h2.777c12.784,0,23.24-10.455,23.24-23.235V675.896c0-12.779-10.455-23.237-23.24-23.237H1825.645z"/>
</g>
</svg>
